# xmcd
#
# Track frame offsets:
#	182
#	13112
#	27910
#	41377
#	57127
#	78047
#	91457
#	114060
#	126780
#	145845
#	166655
#	181125
#	202545
#	219127
#	237092
#	253160
#	288115
#	299137
#
# Disc length: 4378 seconds
#
# Revision: 0
# Processed by: cddbd v1.4PL0 Copyright (c) Steve Scherf et al.
# Submitted via: EasyCDDAExtractor 4.6.0.1
#
DISCID=e3111812
DTITLE=Renaud - Renaud a Bobino
DYEAR=1980
DGENRE=
TTITLE0=Societe, tu m'auras pas
TTITLE1=La chanson du loubard
TTITLE2=La bande a Lucien
TTITLE3=Ma Gonzesse
TTITLE4=Les aventures de Gerard Lambert
TTITLE5=La teigne
TTITLE6=Hexagone
TTITLE7=Chanson pour Pierrot
TTITLE8=La tire a Dede
TTITLE9=Les charognards
TTITLE10=Germaine
TTITLE11=L'auto-stoppeuse
TTITLE12=It is not because you are
TTITLE13=Mimi l'ennui
TTITLE14=Marche a l'ombre
TTITLE15=Dans mon HLM
TTITLE16=Pourquoi d'abord ?
TTITLE17=Baston!
EXTD=
EXTT0=
EXTT1=
EXTT2=
EXTT3=
EXTT4=
EXTT5=
EXTT6=
EXTT7=
EXTT8=
EXTT9=
EXTT10=
EXTT11=
EXTT12=
EXTT13=
EXTT14=
EXTT15=
EXTT16=
EXTT17=
PLAYORDER=
